<mxfile host="app.diagrams.net" agent="Mozilla/5.0 (Macintosh; Intel Mac OS X 10_15_7) AppleWebKit/537.36 (KHTML, like Gecko) Chrome/137.0.0.0 Safari/537.36" version="27.1.3">
  <diagram name="Pagina-1" id="ikaGo5SNIF8OfOEn-spL">
    <mxGraphModel dx="946" dy="592" grid="1" gridSize="10" guides="1" tooltips="1" connect="1" arrows="1" fold="1" page="1" pageScale="1" pageWidth="827" pageHeight="1169" math="0" shadow="0">
      <root>
        <mxCell id="0" />
        <mxCell id="1" parent="0" />
        <mxCell id="_RWYHjqlPCWPgJ8jbFT5-1" style="edgeStyle=orthogonalEdgeStyle;rounded=0;orthogonalLoop=1;jettySize=auto;html=1;exitX=0.5;exitY=0;exitDx=0;exitDy=0;endArrow=none;startFill=0;" edge="1" parent="1">
          <mxGeometry relative="1" as="geometry">
            <mxPoint x="500" y="170" as="targetPoint" />
            <mxPoint x="500" y="230" as="sourcePoint" />
          </mxGeometry>
        </mxCell>
        <mxCell id="_RWYHjqlPCWPgJ8jbFT5-2" style="edgeStyle=orthogonalEdgeStyle;rounded=0;orthogonalLoop=1;jettySize=auto;html=1;exitX=1;exitY=0.5;exitDx=0;exitDy=0;entryX=0;entryY=0.5;entryDx=0;entryDy=0;endArrow=none;startFill=0;" edge="1" parent="1" source="_RWYHjqlPCWPgJ8jbFT5-3">
          <mxGeometry relative="1" as="geometry">
            <mxPoint x="430" y="277" as="targetPoint" />
          </mxGeometry>
        </mxCell>
        <mxCell id="_RWYHjqlPCWPgJ8jbFT5-3" value="" style="ellipse;whiteSpace=wrap;html=1;aspect=fixed;fillColor=#FFFFFF;" vertex="1" parent="1">
          <mxGeometry x="340" y="270" width="14" height="14" as="geometry" />
        </mxCell>
        <mxCell id="_RWYHjqlPCWPgJ8jbFT5-4" value="Immunization" style="text;html=1;align=center;verticalAlign=middle;resizable=0;points=[];autosize=1;strokeColor=none;fillColor=none;" vertex="1" parent="1">
          <mxGeometry x="302" y="284" width="90" height="30" as="geometry" />
        </mxCell>
        <mxCell id="_RWYHjqlPCWPgJ8jbFT5-5" style="edgeStyle=orthogonalEdgeStyle;rounded=0;orthogonalLoop=1;jettySize=auto;html=1;entryX=0;entryY=0.5;entryDx=0;entryDy=0;endArrow=none;startFill=0;" edge="1" parent="1" source="_RWYHjqlPCWPgJ8jbFT5-6" target="_RWYHjqlPCWPgJ8jbFT5-3">
          <mxGeometry relative="1" as="geometry" />
        </mxCell>
        <mxCell id="_RWYHjqlPCWPgJ8jbFT5-6" value="" style="ellipse;whiteSpace=wrap;html=1;aspect=fixed;fillColor=#FFFFFF;" vertex="1" parent="1">
          <mxGeometry x="270" y="270" width="14" height="14" as="geometry" />
        </mxCell>
        <mxCell id="_RWYHjqlPCWPgJ8jbFT5-7" value="Description" style="text;html=1;align=center;verticalAlign=middle;resizable=0;points=[];autosize=1;strokeColor=none;fillColor=none;" vertex="1" parent="1">
          <mxGeometry x="237" y="240" width="80" height="30" as="geometry" />
        </mxCell>
        <mxCell id="_RWYHjqlPCWPgJ8jbFT5-8" style="edgeStyle=orthogonalEdgeStyle;rounded=0;orthogonalLoop=1;jettySize=auto;html=1;exitX=0.5;exitY=0;exitDx=0;exitDy=0;entryX=0.5;entryY=1;entryDx=0;entryDy=0;endArrow=none;startFill=0;" edge="1" parent="1" source="_RWYHjqlPCWPgJ8jbFT5-12" target="_RWYHjqlPCWPgJ8jbFT5-21">
          <mxGeometry relative="1" as="geometry" />
        </mxCell>
        <mxCell id="_RWYHjqlPCWPgJ8jbFT5-9" style="rounded=0;orthogonalLoop=1;jettySize=auto;html=1;exitX=1;exitY=0;exitDx=0;exitDy=0;entryX=0;entryY=0.5;entryDx=0;entryDy=0;endArrow=none;startFill=0;" edge="1" parent="1" source="_RWYHjqlPCWPgJ8jbFT5-12" target="_RWYHjqlPCWPgJ8jbFT5-20">
          <mxGeometry relative="1" as="geometry" />
        </mxCell>
        <mxCell id="_RWYHjqlPCWPgJ8jbFT5-10" style="edgeStyle=orthogonalEdgeStyle;rounded=0;orthogonalLoop=1;jettySize=auto;html=1;exitX=0.5;exitY=1;exitDx=0;exitDy=0;entryX=0.5;entryY=0;entryDx=0;entryDy=0;endArrow=none;startFill=0;" edge="1" parent="1" source="_RWYHjqlPCWPgJ8jbFT5-12" target="_RWYHjqlPCWPgJ8jbFT5-14">
          <mxGeometry relative="1" as="geometry" />
        </mxCell>
        <mxCell id="_RWYHjqlPCWPgJ8jbFT5-11" style="rounded=0;orthogonalLoop=1;jettySize=auto;html=1;exitX=1;exitY=1;exitDx=0;exitDy=0;entryX=0;entryY=0.5;entryDx=0;entryDy=0;endArrow=none;startFill=0;" edge="1" parent="1" source="_RWYHjqlPCWPgJ8jbFT5-12" target="_RWYHjqlPCWPgJ8jbFT5-25">
          <mxGeometry relative="1" as="geometry" />
        </mxCell>
        <mxCell id="_RWYHjqlPCWPgJ8jbFT5-12" value="" style="ellipse;whiteSpace=wrap;html=1;aspect=fixed;fillColor=#FFFFFF;" vertex="1" parent="1">
          <mxGeometry x="722" y="270" width="14" height="14" as="geometry" />
        </mxCell>
        <mxCell id="_RWYHjqlPCWPgJ8jbFT5-13" value="Encounter" style="text;html=1;align=center;verticalAlign=middle;resizable=0;points=[];autosize=1;strokeColor=none;fillColor=none;" vertex="1" parent="1">
          <mxGeometry x="640" y="245" width="80" height="30" as="geometry" />
        </mxCell>
        <mxCell id="_RWYHjqlPCWPgJ8jbFT5-14" value="" style="ellipse;whiteSpace=wrap;html=1;aspect=fixed;fillColor=#FFFFFF;" vertex="1" parent="1">
          <mxGeometry x="722" y="382" width="14" height="14" as="geometry" />
        </mxCell>
        <mxCell id="_RWYHjqlPCWPgJ8jbFT5-15" style="edgeStyle=orthogonalEdgeStyle;rounded=0;orthogonalLoop=1;jettySize=auto;html=1;exitX=1;exitY=0.5;exitDx=0;exitDy=0;entryX=0;entryY=0.5;entryDx=0;entryDy=0;endArrow=none;startFill=0;" edge="1" parent="1" source="_RWYHjqlPCWPgJ8jbFT5-16" target="_RWYHjqlPCWPgJ8jbFT5-14">
          <mxGeometry relative="1" as="geometry" />
        </mxCell>
        <mxCell id="_RWYHjqlPCWPgJ8jbFT5-16" value="" style="ellipse;whiteSpace=wrap;html=1;aspect=fixed;fillColor=#FFFFFF;" vertex="1" parent="1">
          <mxGeometry x="673" y="382" width="14" height="14" as="geometry" />
        </mxCell>
        <mxCell id="_RWYHjqlPCWPgJ8jbFT5-17" value="Name" style="text;html=1;align=center;verticalAlign=middle;resizable=0;points=[];autosize=1;strokeColor=none;fillColor=none;" vertex="1" parent="1">
          <mxGeometry x="610" y="374" width="60" height="30" as="geometry" />
        </mxCell>
        <mxCell id="_RWYHjqlPCWPgJ8jbFT5-18" value="Id_City" style="text;html=1;align=center;verticalAlign=middle;resizable=0;points=[];autosize=1;strokeColor=none;fillColor=none;" vertex="1" parent="1">
          <mxGeometry x="741" y="374" width="60" height="30" as="geometry" />
        </mxCell>
        <mxCell id="_RWYHjqlPCWPgJ8jbFT5-19" style="edgeStyle=orthogonalEdgeStyle;rounded=0;orthogonalLoop=1;jettySize=auto;html=1;exitX=1;exitY=0.5;exitDx=0;exitDy=0;entryX=0;entryY=0.5;entryDx=0;entryDy=0;endArrow=none;startFill=0;" edge="1" parent="1" source="_RWYHjqlPCWPgJ8jbFT5-20" target="_RWYHjqlPCWPgJ8jbFT5-35">
          <mxGeometry relative="1" as="geometry" />
        </mxCell>
        <mxCell id="_RWYHjqlPCWPgJ8jbFT5-20" value="" style="ellipse;whiteSpace=wrap;html=1;aspect=fixed;fillColor=#FFFFFF;" vertex="1" parent="1">
          <mxGeometry x="843.5" y="184" width="14" height="14" as="geometry" />
        </mxCell>
        <mxCell id="_RWYHjqlPCWPgJ8jbFT5-21" value="" style="ellipse;whiteSpace=wrap;html=1;aspect=fixed;fillColor=#FFFFFF;" vertex="1" parent="1">
          <mxGeometry x="722" y="170" width="14" height="14" as="geometry" />
        </mxCell>
        <mxCell id="_RWYHjqlPCWPgJ8jbFT5-22" value="Gender" style="text;html=1;align=center;verticalAlign=middle;resizable=0;points=[];autosize=1;strokeColor=none;fillColor=none;" vertex="1" parent="1">
          <mxGeometry x="699" y="140" width="60" height="30" as="geometry" />
        </mxCell>
        <mxCell id="_RWYHjqlPCWPgJ8jbFT5-23" value="Birthdate" style="text;html=1;align=center;verticalAlign=middle;resizable=0;points=[];autosize=1;strokeColor=none;fillColor=none;" vertex="1" parent="1">
          <mxGeometry x="816.5" y="154" width="70" height="30" as="geometry" />
        </mxCell>
        <mxCell id="_RWYHjqlPCWPgJ8jbFT5-24" style="edgeStyle=orthogonalEdgeStyle;rounded=0;orthogonalLoop=1;jettySize=auto;html=1;exitX=1;exitY=0.5;exitDx=0;exitDy=0;entryX=0;entryY=0.5;entryDx=0;entryDy=0;endArrow=none;startFill=0;" edge="1" parent="1" source="_RWYHjqlPCWPgJ8jbFT5-25" target="_RWYHjqlPCWPgJ8jbFT5-26">
          <mxGeometry relative="1" as="geometry" />
        </mxCell>
        <mxCell id="_RWYHjqlPCWPgJ8jbFT5-25" value="" style="ellipse;whiteSpace=wrap;html=1;aspect=fixed;fillColor=#FFFFFF;" vertex="1" parent="1">
          <mxGeometry x="848.5" y="303" width="14" height="14" as="geometry" />
        </mxCell>
        <mxCell id="_RWYHjqlPCWPgJ8jbFT5-26" value="" style="ellipse;whiteSpace=wrap;html=1;aspect=fixed;fillColor=#FFFFFF;" vertex="1" parent="1">
          <mxGeometry x="918.5" y="303" width="14" height="14" as="geometry" />
        </mxCell>
        <mxCell id="_RWYHjqlPCWPgJ8jbFT5-27" value="Id_Race" style="text;html=1;align=center;verticalAlign=middle;resizable=0;points=[];autosize=1;strokeColor=none;fillColor=none;" vertex="1" parent="1">
          <mxGeometry x="825.5" y="273" width="70" height="30" as="geometry" />
        </mxCell>
        <mxCell id="_RWYHjqlPCWPgJ8jbFT5-28" value="Name" style="text;html=1;align=center;verticalAlign=middle;resizable=0;points=[];autosize=1;strokeColor=none;fillColor=none;" vertex="1" parent="1">
          <mxGeometry x="895.5" y="273" width="60" height="30" as="geometry" />
        </mxCell>
        <mxCell id="_RWYHjqlPCWPgJ8jbFT5-29" style="edgeStyle=orthogonalEdgeStyle;rounded=0;orthogonalLoop=1;jettySize=auto;html=1;entryX=0;entryY=0.5;entryDx=0;entryDy=0;endArrow=none;startFill=0;" edge="1" parent="1" target="_RWYHjqlPCWPgJ8jbFT5-12">
          <mxGeometry relative="1" as="geometry">
            <mxPoint x="570" y="277" as="sourcePoint" />
          </mxGeometry>
        </mxCell>
        <mxCell id="_RWYHjqlPCWPgJ8jbFT5-30" value="" style="ellipse;whiteSpace=wrap;html=1;aspect=fixed;fillColor=#FFFFFF;" vertex="1" parent="1">
          <mxGeometry x="493" y="156" width="14" height="14" as="geometry" />
        </mxCell>
        <mxCell id="_RWYHjqlPCWPgJ8jbFT5-31" value="Date" style="text;html=1;align=center;verticalAlign=middle;resizable=0;points=[];autosize=1;strokeColor=none;fillColor=none;" vertex="1" parent="1">
          <mxGeometry x="440" y="148" width="50" height="30" as="geometry" />
        </mxCell>
        <mxCell id="_RWYHjqlPCWPgJ8jbFT5-32" style="edgeStyle=orthogonalEdgeStyle;rounded=0;orthogonalLoop=1;jettySize=auto;html=1;exitX=0.5;exitY=1;exitDx=0;exitDy=0;entryX=0.5;entryY=0;entryDx=0;entryDy=0;endArrow=none;startFill=0;" edge="1" parent="1" source="_RWYHjqlPCWPgJ8jbFT5-33" target="_RWYHjqlPCWPgJ8jbFT5-30">
          <mxGeometry relative="1" as="geometry" />
        </mxCell>
        <mxCell id="_RWYHjqlPCWPgJ8jbFT5-33" value="" style="ellipse;whiteSpace=wrap;html=1;aspect=fixed;fillColor=#FFFFFF;" vertex="1" parent="1">
          <mxGeometry x="493" y="90" width="14" height="14" as="geometry" />
        </mxCell>
        <mxCell id="_RWYHjqlPCWPgJ8jbFT5-34" value="Year" style="text;strokeColor=none;align=center;fillColor=none;html=1;verticalAlign=middle;whiteSpace=wrap;rounded=0;" vertex="1" parent="1">
          <mxGeometry x="433" y="82" width="60" height="30" as="geometry" />
        </mxCell>
        <mxCell id="_RWYHjqlPCWPgJ8jbFT5-35" value="" style="ellipse;whiteSpace=wrap;html=1;aspect=fixed;fillColor=#FFFFFF;" vertex="1" parent="1">
          <mxGeometry x="950" y="184" width="14" height="14" as="geometry" />
        </mxCell>
        <mxCell id="_RWYHjqlPCWPgJ8jbFT5-36" value="Age_Group" style="text;html=1;align=center;verticalAlign=middle;resizable=0;points=[];autosize=1;strokeColor=none;fillColor=none;" vertex="1" parent="1">
          <mxGeometry x="910" y="148" width="80" height="30" as="geometry" />
        </mxCell>
        <mxCell id="_RWYHjqlPCWPgJ8jbFT5-37" value="Administer" style="swimlane;fontStyle=0;childLayout=stackLayout;horizontal=1;startSize=30;horizontalStack=0;resizeParent=1;resizeParentMax=0;resizeLast=0;collapsible=1;marginBottom=0;whiteSpace=wrap;html=1;" vertex="1" parent="1">
          <mxGeometry x="430" y="228" width="140" height="60" as="geometry" />
        </mxCell>
        <mxCell id="_RWYHjqlPCWPgJ8jbFT5-38" value="Amount_Immunization" style="text;strokeColor=none;fillColor=none;align=left;verticalAlign=middle;spacingLeft=4;spacingRight=4;overflow=hidden;points=[[0,0.5],[1,0.5]];portConstraint=eastwest;rotatable=0;whiteSpace=wrap;html=1;" vertex="1" parent="_RWYHjqlPCWPgJ8jbFT5-37">
          <mxGeometry y="30" width="140" height="30" as="geometry" />
        </mxCell>
        <mxCell id="_RWYHjqlPCWPgJ8jbFT5-39" style="edgeStyle=orthogonalEdgeStyle;rounded=0;orthogonalLoop=1;jettySize=auto;html=1;exitX=0.5;exitY=0;exitDx=0;exitDy=0;entryX=0;entryY=1;entryDx=0;entryDy=0;endArrow=none;startFill=0;" edge="1" parent="1" source="_RWYHjqlPCWPgJ8jbFT5-40" target="_RWYHjqlPCWPgJ8jbFT5-14">
          <mxGeometry relative="1" as="geometry" />
        </mxCell>
        <mxCell id="_RWYHjqlPCWPgJ8jbFT5-40" value="" style="ellipse;whiteSpace=wrap;html=1;aspect=fixed;fillColor=#FFFFFF;" vertex="1" parent="1">
          <mxGeometry x="699" y="440" width="14" height="14" as="geometry" />
        </mxCell>
        <mxCell id="_RWYHjqlPCWPgJ8jbFT5-41" style="edgeStyle=orthogonalEdgeStyle;rounded=0;orthogonalLoop=1;jettySize=auto;html=1;exitX=0.5;exitY=0;exitDx=0;exitDy=0;entryX=1;entryY=1;entryDx=0;entryDy=0;endArrow=none;startFill=0;" edge="1" parent="1" source="_RWYHjqlPCWPgJ8jbFT5-42" target="_RWYHjqlPCWPgJ8jbFT5-14">
          <mxGeometry relative="1" as="geometry" />
        </mxCell>
        <mxCell id="_RWYHjqlPCWPgJ8jbFT5-42" value="" style="ellipse;whiteSpace=wrap;html=1;aspect=fixed;fillColor=#FFFFFF;" vertex="1" parent="1">
          <mxGeometry x="745" y="440" width="14" height="14" as="geometry" />
        </mxCell>
        <mxCell id="_RWYHjqlPCWPgJ8jbFT5-43" value="State_Name" style="text;html=1;align=center;verticalAlign=middle;resizable=0;points=[];autosize=1;strokeColor=none;fillColor=none;" vertex="1" parent="1">
          <mxGeometry x="609" y="432" width="90" height="30" as="geometry" />
        </mxCell>
        <mxCell id="_RWYHjqlPCWPgJ8jbFT5-44" value="County_Name" style="text;html=1;align=center;verticalAlign=middle;resizable=0;points=[];autosize=1;strokeColor=none;fillColor=none;" vertex="1" parent="1">
          <mxGeometry x="754" y="432" width="100" height="30" as="geometry" />
        </mxCell>
      </root>
    </mxGraphModel>
  </diagram>
</mxfile>
